<svg width="600" height="800" xmlns="http://www.w3.org/2000/svg">
  <!-- Cotton handloom saree in blue -->
  <rect width="600" height="800" fill="#4A7CAA" />
  
  <!-- White striped pattern -->
  <g stroke="#FFFFFF" stroke-width="3">
    <line x1="0" y1="50" x2="600" y2="50" opacity="0.7" />
    <line x1="0" y1="100" x2="600" y2="100" opacity="0.6" />
    <line x1="0" y1="150" x2="600" y2="150" opacity="0.5" />
    <line x1="0" y1="200" x2="600" y2="200" opacity="0.7" />
    <line x1="0" y1="250" x2="600" y2="250" opacity="0.6" />
    <line x1="0" y1="300" x2="600" y2="300" opacity="0.5" />
    <line x1="0" y1="350" x2="600" y2="350" opacity="0.7" />
    <line x1="0" y1="400" x2="600" y2="400" opacity="0.6" />
    <line x1="0" y1="450" x2="600" y2="450" opacity="0.5" />
    <line x1="0" y1="500" x2="600" y2="500" opacity="0.7" />
    <line x1="0" y1="550" x2="600" y2="550" opacity="0.6" />
    <line x1="0" y1="600" x2="600" y2="600" opacity="0.5" />
    <line x1="0" y1="650" x2="600" y2="650" opacity="0.7" />
    <line x1="0" y1="700" x2="600" y2="700" opacity="0.6" />
    <line x1="0" y1="750" x2="600" y2="750" opacity="0.5" />
  </g>
  
  <!-- Contrast border -->
  <rect x="0" y="700" width="600" height="100" fill="#FFFFFF" opacity="0.7" />
  
  <!-- Blue design elements in the white border -->
  <g fill="#4A7CAA">
    <circle cx="50" cy="750" r="20" />
    <circle cx="150" cy="750" r="20" />
    <circle cx="250" cy="750" r="20" />
    <circle cx="350" cy="750" r="20" />
    <circle cx="450" cy="750" r="20" />
    <circle cx="550" cy="750" r="20" />
  </g>
  
  <!-- Cotton texture overlay -->
  <rect width="600" height="800" fill="url(#cotton-texture)" opacity="0.1" />
  
  <defs>
    <pattern id="cotton-texture" patternUnits="userSpaceOnUse" width="10" height="10">
      <path d="M0,5 L10,5 M5,0 L5,10" stroke="#000000" stroke-width="0.5" opacity="0.1" />
    </pattern>
  </defs>
</svg>
