<svg width="600" height="800" xmlns="http://www.w3.org/2000/svg">
  <!-- Cotton handloom saree close-up in blue -->
  <rect width="600" height="800" fill="#4A7CAA" />
  
  <!-- Close-up of cotton weave texture -->
  <pattern id="cotton-weave" patternUnits="userSpaceOnUse" width="20" height="20">
    <rect width="20" height="20" fill="#4A7CAA" />
    <path d="M0,0 L20,0 L20,10 L0,10 Z" fill="#3E6B94" opacity="0.5" />
    <path d="M0,10 L20,10 L20,20 L0,20 Z" fill="#5B8AB6" opacity="0.5" />
  </pattern>
  
  <!-- Apply weave texture -->
  <rect width="600" height="800" fill="url(#cotton-weave)" />
  
  <!-- White stripes (larger to show detail) -->
  <g stroke="#FFFFFF" stroke-width="8">
    <line x1="0" y1="200" x2="600" y2="200" opacity="0.7" />
    <line x1="0" y1="400" x2="600" y2="400" opacity="0.7" />
    <line x1="0" y1="600" x2="600" y2="600" opacity="0.7" />
  </g>
  
  <!-- Thread detail overlay -->
  <pattern id="thread-detail" patternUnits="userSpaceOnUse" width="10" height="10">
    <path d="M0,5 L10,5 M5,0 L5,10" stroke="#FFFFFF" stroke-width="0.5" opacity="0.2" />
  </pattern>
  
  <rect width="600" height="800" fill="url(#thread-detail)" />
  
  <!-- Highlight on weave -->
  <rect x="100" y="100" width="400" height="600" fill="none" stroke="#FFFFFF" stroke-width="1" opacity="0.3" />
  
  <!-- Show some thread variations for realism -->
  <g stroke="#3E6B94" stroke-width="0.5" opacity="0.3">
    <line x1="150" y1="150" x2="250" y2="150" />
    <line x1="300" y1="250" x2="400" y2="250" />
    <line x1="200" y1="350" x2="300" y2="350" />
    <line x1="350" y1="450" x2="450" y2="450" />
    <line x1="250" y1="550" x2="350" y2="550" />
  </g>
</svg>
