<svg width="600" height="800" xmlns="http://www.w3.org/2000/svg">
  <!-- Red silk saree with gold border -->
  <rect width="600" height="800" fill="#D02A2A" />
  <rect x="0" y="700" width="600" height="100" fill="#BF9B30" />
  
  <!-- Gold pattern -->
  <g fill="#BF9B30">
    <!-- Paisley pattern -->
    <path d="M50,50 C70,30 100,40 100,70 C100,100 70,110 50,90 C30,70 30,70 50,50 Z" />
    <path d="M150,150 C170,130 200,140 200,170 C200,200 170,210 150,190 C130,170 130,170 150,150 Z" />
    <path d="M250,250 C270,230 300,240 300,270 C300,300 270,310 250,290 C230,270 230,270 250,250 Z" />
    <path d="M350,350 C370,330 400,340 400,370 C400,400 370,410 350,390 C330,370 330,370 350,350 Z" />
    <path d="M450,450 C470,430 500,440 500,470 C500,500 470,510 450,490 C430,470 430,470 450,450 Z" />
    <path d="M550,550 C570,530 600,540 600,570 C600,600 570,610 550,590 C530,570 530,570 550,550 Z" />
  </g>
  
  <!-- Gold border details -->
  <rect x="20" y="720" width="560" height="2" fill="#D9B954" />
  <rect x="20" y="740" width="560" height="2" fill="#D9B954" />
  <rect x="20" y="760" width="560" height="2" fill="#D9B954" />
  <rect x="20" y="780" width="560" height="2" fill="#D9B954" />
</svg>
